<svg width="38" height="39" viewBox="0 0 38 39" fill="none" xmlns="http://www.w3.org/2000/svg">
<rect width="38" height="39" fill="#1E1E1E"/>
<g clip-path="url(#clip0_0_1)">
<rect width="1440" height="783" transform="translate(-108 -19)" fill="white"/>
</g>
<g filter="url(#filter0_d_0_1)">
<rect width="1439.98" height="77" transform="translate(-108 -19)" fill="white"/>
<path d="M18.6434 17.2444L12.5344 11.1249C12.4722 11.0627 12.3715 11.0627 12.3094 11.1249L1.19988 22.2536C1.13775 22.3158 1.13776 22.4167 1.19988 22.4789L7.3089 28.5985C7.37102 28.6607 7.47174 28.6607 7.53386 28.5985L18.6434 17.4698C18.7055 17.4076 18.7055 17.3067 18.6434 17.2444Z" fill="#2F80ED"/>
<path d="M30.7159 28.5673L36.7627 22.5101C36.842 22.4306 36.842 22.3018 36.7627 22.2224L25.7154 11.156C25.6361 11.0766 25.5075 11.0766 25.4282 11.156L19.3814 17.2133C19.3021 17.2927 19.3021 17.4215 19.3814 17.5009L30.4287 28.5673C30.508 28.6467 30.6365 28.6467 30.7159 28.5673Z" fill="#2F80ED"/>
<path d="M25.0576 28.1774L19.0913 22.2008C19.0409 22.1503 18.9591 22.1503 18.9087 22.2008L12.9424 28.1774C12.892 28.2279 12.892 28.3098 12.9424 28.3603L18.9087 34.3368C18.9591 34.3874 19.0409 34.3874 19.0913 34.3368L25.0576 28.3603C25.108 28.3098 25.108 28.2279 25.0576 28.1774Z" fill="#012555"/>
<path d="M25.0576 10.6745L19.0913 4.6979C19.0409 4.64739 18.9591 4.64739 18.9087 4.6979L12.9424 10.6745C12.892 10.725 12.892 10.8069 12.9424 10.8574L18.9087 16.8339C18.9591 16.8844 19.0409 16.8844 19.0913 16.8339L25.0576 10.8574C25.108 10.8069 25.108 10.725 25.0576 10.6745Z" fill="#012555"/>
</g>
<defs>
<filter id="filter0_d_0_1" x="-148" y="-57" width="1520" height="194" filterUnits="userSpaceOnUse" color-interpolation-filters="sRGB">
<feFlood flood-opacity="0" result="BackgroundImageFix"/>
<feColorMatrix in="SourceAlpha" type="matrix" values="0 0 0 0 0 0 0 0 0 0 0 0 0 0 0 0 0 0 127 0" result="hardAlpha"/>
<feOffset dy="2"/>
<feGaussianBlur stdDeviation="20"/>
<feComposite in2="hardAlpha" operator="out"/>
<feColorMatrix type="matrix" values="0 0 0 0 0 0 0 0 0 0 0 0 0 0 0 0 0 0 0.12 0"/>
<feBlend mode="normal" in2="BackgroundImageFix" result="effect1_dropShadow_0_1"/>
<feBlend mode="normal" in="SourceGraphic" in2="effect1_dropShadow_0_1" result="shape"/>
</filter>
<clipPath id="clip0_0_1">
<rect width="1440" height="783" fill="white" transform="translate(-108 -19)"/>
</clipPath>
</defs>
</svg>
